<?xml version="1.0" encoding="iso-8859-1"?>
<!-- Generator: Adobe Illustrator 19.0.0, SVG Export Plug-In . SVG Version: 6.00 Build 0)  -->
<svg fill = "white" version="1.1" id="Capa_1" xmlns="http://www.w3.org/2000/svg" xmlns:xlink="http://www.w3.org/1999/xlink" x="0px" y="0px"
	 viewBox="0 0 503.604 503.604" style="enable-background:new 0 0 503.604 503.604;" xml:space="preserve">
<g>
	<g>
		<g>
			<path d="M478.306,25.3c-33.73-33.732-88.419-33.734-122.152-0.004L25.302,356.153C0.6,380.856-6.79,418.006,6.579,450.282
				c13.368,32.276,44.863,53.32,79.797,53.322c22.92,0.064,44.913-9.046,61.074-25.299l330.853-330.853
				C512.035,113.722,512.036,59.033,478.306,25.3z M466.433,135.583L135.581,466.436c-17.58,17.579-43.203,24.444-67.217,18.009
				c-24.014-6.435-42.771-25.193-49.205-49.207c-6.434-24.014,0.432-49.637,18.012-67.216L368.024,37.166
				c17.573-17.616,43.215-24.508,67.252-18.077c24.037,6.431,42.811,25.207,49.24,49.244
				C490.945,92.371,484.05,118.012,466.433,135.583z"/>
			<path d="M351.382,196.172c2.696-3.047,2.554-7.666-0.324-10.543c-2.877-2.876-7.496-3.017-10.543-0.32l-0.066-0.098
				l-22.057-22.057l-0.097-0.065c2.697-3.047,2.557-7.666-0.32-10.543c-2.876-2.878-7.496-3.019-10.543-0.323l-0.065-0.097
				c-9.375-9.353-24.551-9.353-33.926,0l-11.033,11.029c-9.353,9.375-9.353,24.551,0,33.926l0.099,0.065
				c-2.692,3.042-2.556,7.653,0.312,10.531c2.867,2.878,7.478,3.031,10.53,0.35l0.068,0.102l22.057,22.057l0.103,0.069
				c-2.682,3.052-2.529,7.662,0.349,10.53c2.878,2.867,7.489,3.004,10.531,0.311l0.066,0.098c9.374,9.355,24.552,9.355,33.926,0
				l11.033-11.029c9.352-9.375,9.352-24.551,0-33.926L351.382,196.172z M274.278,185.21c-2.811-2.814-2.811-7.374,0-10.188
				l11.033-11.029c2.817-2.803,7.369-2.803,10.187-0.001l-21.219,21.219L274.278,185.21z M285.287,196.26l21.238-21.238
				l22.056,22.057l-21.238,21.238v0L285.287,196.26z M339.614,218.297l-11.033,11.029c-2.814,2.811-7.374,2.811-10.189,0
				l21.219-21.22l0.002,0.003C342.425,210.922,342.425,215.482,339.614,218.297z"/>
			<path d="M241.097,306.456c2.698-3.048,2.556-7.669-0.323-10.546s-7.5-3.015-10.546-0.315l-0.066-0.098l-22.057-22.057
				l-0.096-0.064c2.698-3.047,2.558-7.667-0.32-10.545s-7.497-3.019-10.545-0.323l-0.064-0.097c-9.375-9.353-24.551-9.353-33.926,0
				l-11.033,11.029c-9.352,9.375-9.352,24.551,0,33.926l0.101,0.066c-2.696,3.048-2.554,7.667,0.324,10.544
				c2.878,2.876,7.498,3.016,10.544,0.318l0.065,0.097l22.057,22.057l0.098,0.065c-2.696,3.047-2.556,7.665,0.32,10.543
				c2.876,2.877,7.495,3.02,10.542,0.325l0.064,0.096c9.374,9.355,24.552,9.355,33.926,0l11.033-11.029
				c9.352-9.375,9.352-24.551,0-33.926L241.097,306.456z M163.991,295.497c-2.811-2.814-2.811-7.374,0-10.188v0l11.033-11.029
				c2.817-2.803,7.369-2.803,10.187-0.001l-21.219,21.219L163.991,295.497z M175.024,306.523l21.213-21.213l22.056,22.057
				l-21.213,21.214v-0.001L175.024,306.523z M229.327,328.579L229.327,328.579l-11.033,11.029
				c-2.817,2.803-7.369,2.803-10.186,0.002l21.219-21.219C232.138,321.206,232.138,325.765,229.327,328.579z"/>
			<path d="M394.745,86.784c1.578,1.581,3.726,2.458,5.959,2.434c0.536,0.027,1.072-0.029,1.59-0.168
				c0.545-0.089,1.08-0.229,1.598-0.418c0.5-0.254,1.008-0.504,1.426-0.758c0.473-0.295,0.896-0.663,1.254-1.09
				c0.811-0.745,1.444-1.662,1.852-2.684c0.423-1.041,0.651-2.151,0.672-3.275c-0.013-1.097-0.242-2.18-0.672-3.189
				c-0.409-1.022-1.042-1.94-1.853-2.685c-0.359-0.428-0.782-0.797-1.254-1.094c-0.418-0.25-0.926-0.504-1.426-0.754
				c-0.508-0.168-1.008-0.336-1.598-0.504c-2.749-0.492-5.566,0.386-7.549,2.352c-1.616,1.518-2.502,3.657-2.434,5.873
				c-0.018,1.119,0.18,2.23,0.582,3.275C393.328,85.107,393.957,86.02,394.745,86.784z"/>
			<path d="M385.761,105.588c0.542-0.091,1.074-0.232,1.59-0.422c0.508-0.25,1.008-0.504,1.426-0.754
				c0.475-0.295,0.901-0.663,1.262-1.09c0.808-0.747,1.438-1.666,1.844-2.688c0.443-1.034,0.672-2.146,0.672-3.271
				c-0.018-1.097-0.246-2.181-0.672-3.193c-0.407-1.021-1.037-1.938-1.844-2.684c-0.361-0.427-0.787-0.795-1.262-1.09
				c-0.418-0.254-0.918-0.504-1.426-0.754c-0.5-0.168-1-0.336-1.59-0.504c-1.612-0.257-3.264-0.083-4.787,0.504
				c-1.042,0.414-1.986,1.042-2.771,1.844c-1.575,1.548-2.454,3.669-2.434,5.877c-0.015,1.118,0.186,2.228,0.59,3.271
				c0.466,0.99,1.089,1.897,1.844,2.688c0.761,0.83,1.712,1.462,2.771,1.844c1.013,0.406,2.097,0.607,3.189,0.59
				C384.701,105.783,385.24,105.726,385.761,105.588z"/>
			<path d="M372.245,106.927c-0.418-0.25-0.918-0.5-1.426-0.754c-0.519-0.179-1.05-0.319-1.59-0.418
				c-2.74-0.553-5.574,0.297-7.557,2.266c-0.782,0.767-1.409,1.679-1.844,2.684c-0.409,1.042-0.609,2.155-0.59,3.275
				c-0.019,1.092,0.182,2.176,0.59,3.188c0.435,1.006,1.062,1.918,1.844,2.685c1.57,1.592,3.724,2.472,5.959,2.434
				c0.534,0.013,1.068-0.014,1.598-0.082c0.5-0.168,1.09-0.336,1.59-0.504c0.508-0.254,1.008-0.504,1.426-0.754
				c0.476-0.295,0.902-0.664,1.262-1.094c1.598-1.537,2.505-3.656,2.516-5.873c-0.01-2.243-0.916-4.388-2.516-5.959
				C373.147,107.592,372.721,107.223,372.245,106.927z"/>
			<path d="M427.392,95.935c-0.428-0.333-0.911-0.59-1.426-0.758c-3.142-1.297-6.756-0.567-9.148,1.848
				c-0.811,0.745-1.444,1.662-1.853,2.684c-0.776,2.056-0.776,4.325,0,6.381c0.386,1.058,1.022,2.007,1.853,2.767
				c0.774,0.753,1.683,1.352,2.68,1.766c0.506,0.242,1.044,0.411,1.598,0.5c0.555,0.098,1.117,0.155,1.68,0.168
				c1.1,0.02,2.189-0.209,3.189-0.668c0.516-0.168,0.998-0.425,1.426-0.758c0.47-0.266,0.894-0.606,1.254-1.008
				c1.606-1.568,2.515-3.715,2.525-5.959c-0.01-2.219-0.921-4.339-2.525-5.873C428.291,96.596,427.867,96.228,427.392,95.935z"/>
			<path d="M413.958,116.247c-0.246-0.504-0.5-1.008-0.754-1.426c-0.296-0.474-0.664-0.9-1.09-1.262
				c-0.379-0.406-0.799-0.771-1.254-1.09c-0.426-0.25-0.926-0.504-1.426-0.754c-0.508-0.168-1.098-0.336-1.598-0.504
				c-2.751-0.492-5.57,0.384-7.558,2.349c-0.426,0.362-0.794,0.788-1.09,1.262c-0.246,0.418-0.5,0.922-0.754,1.426
				c-0.164,0.504-0.336,1.004-0.5,1.594c-0.102,0.526-0.159,1.059-0.172,1.594c0.01,2.243,0.916,4.388,2.516,5.959
				c1.571,1.591,3.724,2.471,5.959,2.434c0.538,0.028,1.078-0.029,1.598-0.168c0.542-0.1,1.077-0.24,1.598-0.418
				c0.502-0.233,0.979-0.514,1.426-0.84c0.471-0.264,0.895-0.605,1.254-1.008c1.604-1.569,2.51-3.716,2.516-5.959
				c-0.014-0.535-0.069-1.068-0.164-1.594C414.294,117.251,414.131,116.751,413.958,116.247z"/>
			<path d="M394.319,129.006c-0.5-0.254-0.918-0.504-1.426-0.758c-0.5-0.168-1.09-0.336-1.59-0.504
				c-1.087-0.164-2.192-0.164-3.279,0c-0.582,0.168-1.09,0.336-1.59,0.504c-0.508,0.254-1.008,0.504-1.426,0.758
				c-0.475,0.295-0.901,0.663-1.262,1.09c-1.598,1.539-2.506,3.659-2.516,5.877c0.014,0.562,0.069,1.122,0.164,1.676
				c0.132,0.543,0.302,1.075,0.508,1.594c0.215,0.494,0.467,0.971,0.754,1.426c0.318,0.458,0.683,0.881,1.09,1.262
				c0.769,0.783,1.682,1.409,2.689,1.844c0.519,0.179,1.051,0.32,1.59,0.422c0.521,0.139,1.06,0.195,1.598,0.168
				c0.565,0.028,1.132-0.029,1.68-0.168c0.54-0.102,1.071-0.243,1.59-0.422c1.007-0.435,1.92-1.062,2.688-1.844
				c0.405-0.361,0.746-0.788,1.008-1.262c0.31-0.456,0.589-0.933,0.836-1.426c0.181-0.52,0.321-1.053,0.418-1.594
				c0.142-0.547,0.2-1.112,0.172-1.676c0.02-2.208-0.859-4.33-2.434-5.877C395.183,129.707,394.761,129.343,394.319,129.006z"/>
			<path d="M113.983,376.022c0.534-0.013,1.065-0.069,1.59-0.168c0.59-0.168,1.09-0.336,1.598-0.504c0.5-0.25,1.008-0.5,1.426-0.754
				c0.474-0.297,0.899-0.665,1.262-1.09c3.235-3.282,3.235-8.554,0-11.836c-3.334-3.107-8.502-3.107-11.836,0
				c-3.246,3.278-3.246,8.558,0,11.836C109.593,375.109,111.739,376.016,113.983,376.022z"/>
			<path d="M97.36,392.559c2.233,0.022,4.38-0.856,5.959-2.434c1.579-1.579,2.456-3.726,2.434-5.959
				c0.027-0.565-0.029-1.131-0.164-1.68c-0.105-0.54-0.244-1.072-0.418-1.594c-0.254-0.504-0.508-0.922-0.762-1.426
				c-0.34-0.439-0.704-0.859-1.09-1.258c-3.334-3.107-8.502-3.107-11.836,0c-1.615,1.561-2.523,3.713-2.516,5.959
				C88.998,388.788,92.737,392.527,97.36,392.559L97.36,392.559z"/>
			<path d="M85.524,393.735c-0.455-0.313-0.932-0.594-1.426-0.84c-0.519-0.179-1.051-0.32-1.59-0.422
				c-1.63-0.329-3.32-0.183-4.869,0.422c-0.989,0.466-1.897,1.089-2.688,1.844c-2.465,2.366-3.201,6.015-1.844,9.152
				c0.426,1.036,1.053,1.978,1.844,2.77c1.569,1.542,3.677,2.414,5.877,2.43c0.564-0.009,1.126-0.065,1.68-0.168
				c0.551-0.089,1.087-0.258,1.59-0.5c0.509-0.184,0.989-0.439,1.426-0.758c0.426-0.336,0.844-0.672,1.262-1.004
				c0.765-0.814,1.388-1.751,1.844-2.771c1.228-3.149,0.507-6.724-1.844-9.152C86.388,394.377,85.966,394.041,85.524,393.735z"/>
			<path d="M132.778,381.899c-1.019,0.408-1.935,1.038-2.68,1.844c-1.6,1.537-2.508,3.658-2.516,5.877
				c0.009,1.125,0.237,2.237,0.672,3.275c0.403,1.023,1.033,1.941,1.844,2.684c0.768,0.781,1.678,1.408,2.68,1.848
				c1.017,0.404,2.103,0.603,3.197,0.586c0.563,0.028,1.126-0.029,1.672-0.168c0.543-0.098,1.077-0.238,1.598-0.418
				c0.5-0.254,1.008-0.504,1.426-0.758c0.458-0.317,0.881-0.683,1.262-1.09c0.782-0.767,1.409-1.679,1.844-2.684
				c0.405-1.044,0.605-2.155,0.59-3.275c0.019-2.208-0.86-4.329-2.434-5.877C139.513,381.377,135.927,380.654,132.778,381.899z"/>
			<path d="M117.843,397.932c-0.59,0.168-1.09,0.336-1.598,0.5c-0.5,0.254-1.008,0.504-1.426,0.758
				c-0.473,0.295-0.896,0.663-1.254,1.09c-1.613,1.546-2.525,3.684-2.525,5.918c0,2.234,0.912,4.372,2.525,5.918
				c0.358,0.427,0.781,0.795,1.254,1.09c0.418,0.25,0.926,0.504,1.426,0.754c0.508,0.168,1.008,0.336,1.598,0.504
				c0.525,0.098,1.056,0.155,1.59,0.168c0.564-0.013,1.125-0.069,1.68-0.168c0.508-0.168,1.008-0.336,1.508-0.504
				c0.508-0.25,1.008-0.504,1.516-0.754c0.438-0.34,0.857-0.704,1.254-1.09c3.246-3.278,3.246-8.558,0-11.836
				C123.401,398.326,120.591,397.452,117.843,397.932z"/>
			<path d="M106.16,415.004c-3.131-1.308-6.742-0.591-9.137,1.813v0c-1.6,1.571-2.506,3.717-2.516,5.959
				c0.013,0.535,0.07,1.069,0.172,1.594c0.075,0.556,0.245,1.095,0.5,1.594c0.164,0.517,0.42,1,0.754,1.426
				c0.296,0.473,0.664,0.898,1.09,1.258c1.538,1.599,3.658,2.508,5.877,2.52c0.563-0.015,1.125-0.071,1.68-0.168l1.508-0.504
				l1.508-0.754c0.443-0.338,0.865-0.703,1.262-1.094c0.4-0.364,0.74-0.788,1.008-1.258c0.334-0.427,0.59-0.91,0.754-1.426
				c0.255-0.5,0.426-1.039,0.508-1.594c0.135-0.52,0.191-1.058,0.164-1.594C111.32,419.383,109.291,416.311,106.16,415.004z"/>
		</g>
	</g>
</g>
<g>
</g>
<g>
</g>
<g>
</g>
<g>
</g>
<g>
</g>
<g>
</g>
<g>
</g>
<g>
</g>
<g>
</g>
<g>
</g>
<g>
</g>
<g>
</g>
<g>
</g>
<g>
</g>
<g>
</g>
</svg>
